<svg width="26" height="19" viewBox="0 0 26 19" fill="none" xmlns="http://www.w3.org/2000/svg">
<path d="M24.7515 5.48181H21.8282L21.0157 3.45056C20.1807 1.36218 18.188 0.0130615 15.9385 0.0130615H9.73734C7.48832 0.0130615 5.49516 1.36218 4.65971 3.45056L3.84721 5.48181H0.924356C0.543009 5.48181 0.263223 5.84021 0.355997 6.20984L0.648966 7.38171C0.713907 7.64246 0.948282 7.82556 1.21732 7.82556H2.19731C1.54154 8.39832 1.11918 9.23083 1.11918 10.1693V12.5131C1.11918 13.3002 1.41996 14.0106 1.90043 14.5604V17.2006C1.90043 18.0634 2.60014 18.7631 3.46293 18.7631H5.02543C5.88822 18.7631 6.58793 18.0634 6.58793 17.2006V15.6381H19.0879V17.2006C19.0879 18.0634 19.7876 18.7631 20.6504 18.7631H22.2129C23.0757 18.7631 23.7754 18.0634 23.7754 17.2006V14.5604C24.2559 14.0111 24.5567 13.3007 24.5567 12.5131V10.1693C24.5567 9.23083 24.1343 8.39832 23.479 7.82556H24.459C24.7281 7.82556 24.9624 7.64246 25.0274 7.38171L25.3204 6.20984C25.4126 5.84021 25.1329 5.48181 24.7515 5.48181ZM7.56107 4.61121C7.91703 3.72156 8.77885 3.13806 9.73734 3.13806H15.9385C16.897 3.13806 17.7588 3.72156 18.1148 4.61121L19.0879 7.04431H6.58793L7.56107 4.61121ZM5.02543 12.5033C4.08793 12.5033 3.46293 11.8802 3.46293 10.9457C3.46293 10.0111 4.08793 9.38806 5.02543 9.38806C5.96293 9.38806 7.36918 10.7899 7.36918 11.7245C7.36918 12.6591 5.96293 12.5033 5.02543 12.5033ZM20.6504 12.5033C19.7129 12.5033 18.3067 12.6591 18.3067 11.7245C18.3067 10.7899 19.7129 9.38806 20.6504 9.38806C21.5879 9.38806 22.2129 10.0111 22.2129 10.9457C22.2129 11.8802 21.5879 12.5033 20.6504 12.5033Z" fill="black"/>
</svg>
