<svg width="25" height="25" viewBox="0 0 25 25" fill="none" xmlns="http://www.w3.org/2000/svg">
<path d="M13.8662 6.57373C10.7607 6.57373 8.25583 9.07861 8.25583 12.1841C8.25583 15.2896 10.7607 17.7944 13.8662 17.7944C16.9716 17.7944 19.4765 15.2896 19.4765 12.1841C19.4765 9.07861 16.9716 6.57373 13.8662 6.57373ZM13.8662 15.8315C11.8593 15.8315 10.2187 14.1958 10.2187 12.1841C10.2187 10.1724 11.8545 8.53662 13.8662 8.53662C15.8779 8.53662 17.5136 10.1724 17.5136 12.1841C17.5136 14.1958 15.873 15.8315 13.8662 15.8315ZM21.0146 6.34424C21.0146 7.07178 20.4287 7.65283 19.706 7.65283C18.9785 7.65283 18.3974 7.06689 18.3974 6.34424C18.3974 5.62158 18.9834 5.03564 19.706 5.03564C20.4287 5.03564 21.0146 5.62158 21.0146 6.34424ZM24.7304 7.67236C24.6474 5.91943 24.247 4.3667 22.9629 3.0874C21.6836 1.80811 20.1308 1.40771 18.3779 1.31982C16.5713 1.21729 11.1562 1.21729 9.34958 1.31982C7.60153 1.40283 6.0488 1.80322 4.76462 3.08252C3.48044 4.36182 3.08493 5.91455 2.99704 7.66748C2.8945 9.47412 2.8945 14.8892 2.99704 16.6958C3.08005 18.4487 3.48044 20.0015 4.76462 21.2808C6.0488 22.5601 7.59665 22.9604 9.34958 23.0483C11.1562 23.1509 16.5713 23.1509 18.3779 23.0483C20.1308 22.9653 21.6836 22.5649 22.9629 21.2808C24.2422 20.0015 24.6425 18.4487 24.7304 16.6958C24.833 14.8892 24.833 9.479 24.7304 7.67236ZM22.3965 18.6343C22.0156 19.5913 21.2783 20.3286 20.3164 20.7144C18.8759 21.2856 15.458 21.1538 13.8662 21.1538C12.2744 21.1538 8.85153 21.2808 7.41598 20.7144C6.45895 20.3335 5.72165 19.5962 5.33591 18.6343C4.76462 17.1938 4.89645 13.7759 4.89645 12.1841C4.89645 10.5923 4.7695 7.16943 5.33591 5.73389C5.71677 4.77686 6.45407 4.03955 7.41598 3.65381C8.85641 3.08252 12.2744 3.21436 13.8662 3.21436C15.458 3.21436 18.8808 3.0874 20.3164 3.65381C21.2734 4.03467 22.0107 4.77197 22.3965 5.73389C22.9677 7.17432 22.8359 10.5923 22.8359 12.1841C22.8359 13.7759 22.9677 17.1987 22.3965 18.6343Z" fill="#e4ae35"/>
</svg>
