<svg width="19" height="25" viewBox="0 0 19 25" fill="none" xmlns="http://www.w3.org/2000/svg">
<path d="M18.472 18.4813L14.5711 14.0629H16.0667C16.5066 14.0629 16.8958 13.8187 17.0813 13.4252C17.2669 13.0326 17.2058 12.5824 16.9212 12.2509L13.1062 7.81287H14.5169C14.9612 7.81287 15.3616 7.55164 15.5354 7.14832C15.7073 6.75134 15.6262 6.28943 15.3284 5.97253L9.94412 0.236206C9.64968 -0.0787354 9.10037 -0.0787354 8.80545 0.236206L3.42068 5.97253C3.12283 6.28943 3.04226 6.75134 3.21365 7.14832C3.38748 7.55164 3.78836 7.81287 4.23269 7.81287H5.64334L1.82791 12.2518C1.54422 12.5829 1.48318 13.0326 1.66824 13.4257C1.85379 13.8187 2.24246 14.0629 2.68289 14.0629H4.17849L0.277615 18.4813C-0.0153541 18.8129 -0.0817603 19.267 0.103787 19.6659C0.286892 20.059 0.689724 20.3129 1.12967 20.3129H7.81228V21.5067L6.33328 23.87C6.07351 24.3895 6.45144 25.0009 7.03201 25.0009H11.7176C12.2981 25.0009 12.6761 24.3895 12.4163 23.87L10.9373 21.5067V20.3129H17.6199C18.0598 20.3129 18.4627 20.059 18.6458 19.6659C18.8313 19.267 18.7649 18.8129 18.472 18.4813Z" fill="black"/>
</svg>
