<svg width="25" height="25" viewBox="0 0 25 25" fill="none" xmlns="http://www.w3.org/2000/svg">
<path d="M23.8566 6.77446C23.5839 5.74798 22.7807 4.93956 21.7609 4.66521C19.9124 4.16669 12.5 4.16669 12.5 4.16669C12.5 4.16669 5.08767 4.16669 3.2391 4.66521C2.21927 4.9396 1.41606 5.74798 1.14344 6.77446C0.648132 8.635 0.648132 12.5169 0.648132 12.5169C0.648132 12.5169 0.648132 16.3987 1.14344 18.2593C1.41606 19.2857 2.21927 20.0605 3.2391 20.3348C5.08767 20.8334 12.5 20.8334 12.5 20.8334C12.5 20.8334 19.9123 20.8334 21.7609 20.3348C22.7807 20.0605 23.5839 19.2857 23.8566 18.2593C24.3519 16.3987 24.3519 12.5169 24.3519 12.5169C24.3519 12.5169 24.3519 8.635 23.8566 6.77446ZM10.0757 16.0413V8.99242L16.271 12.5169L10.0757 16.0413Z" fill="#e4ae35"/>
</svg>
